<svg width="184" height="31" viewBox="0 0 184 31" fill="none" xmlns="http://www.w3.org/2000/svg">
<path d="M38.272 1.6L31.104 24H23.008L19.392 12.032L15.584 24H7.488L0.32 1.6H8.096L12 14.336L16.128 1.6H23.072L26.976 14.496L31.104 1.6H38.272ZM57.0678 15.232C57.0678 15.3387 57.0358 15.904 56.9718 16.928H44.8118C45.0678 17.5893 45.4944 18.1013 46.0918 18.464C46.6891 18.8053 47.4358 18.976 48.3318 18.976C49.0998 18.976 49.7398 18.88 50.2518 18.688C50.7851 18.496 51.3611 18.1653 51.9798 17.696L55.7558 21.504C54.0491 23.3813 51.4998 24.32 48.1078 24.32C45.9958 24.32 44.1398 23.936 42.5398 23.168C40.9398 22.3787 39.7024 21.2907 38.8278 19.904C37.9531 18.5173 37.5158 16.96 37.5158 15.232C37.5158 13.4827 37.9424 11.9253 38.7958 10.56C39.6704 9.17333 40.8544 8.096 42.3478 7.328C43.8624 6.56 45.5584 6.176 47.4358 6.176C49.2064 6.176 50.8171 6.528 52.2678 7.232C53.7398 7.936 54.9024 8.97067 55.7558 10.336C56.6304 11.7013 57.0678 13.3333 57.0678 15.232ZM47.4998 11.104C46.7531 11.104 46.1344 11.3067 45.6438 11.712C45.1531 12.1173 44.8331 12.6933 44.6838 13.44H50.3158C50.1664 12.7147 49.8464 12.1493 49.3558 11.744C48.8651 11.3173 48.2464 11.104 47.4998 11.104ZM71.03 6.176C72.566 6.176 73.974 6.54933 75.254 7.296C76.5553 8.02133 77.5793 9.07733 78.326 10.464C79.094 11.8293 79.478 13.4187 79.478 15.232C79.478 17.0453 79.094 18.6453 78.326 20.032C77.5793 21.4187 76.5553 22.4853 75.254 23.232C73.974 23.9573 72.566 24.32 71.03 24.32C68.8753 24.32 67.2753 23.7333 66.23 22.56V24H59.35V0.255999H66.582V7.68C67.606 6.67733 69.0887 6.176 71.03 6.176ZM69.302 18.688C70.134 18.688 70.8167 18.3893 71.35 17.792C71.8833 17.1733 72.15 16.32 72.15 15.232C72.15 14.144 71.8833 13.3013 71.35 12.704C70.8167 12.1067 70.134 11.808 69.302 11.808C68.47 11.808 67.7873 12.1067 67.254 12.704C66.7207 13.3013 66.454 14.144 66.454 15.232C66.454 16.32 66.7207 17.1733 67.254 17.792C67.7873 18.3893 68.47 18.688 69.302 18.688Z" fill="#1D4ED8"/>
<path d="M90.3323 24.512C88.4763 24.512 86.6629 24.3093 84.8923 23.904C83.1429 23.4773 81.7029 22.912 80.5723 22.208L83.0043 16.704C84.0709 17.3227 85.2656 17.824 86.5883 18.208C87.9109 18.5707 89.1803 18.752 90.3963 18.752C91.4416 18.752 92.1883 18.656 92.6363 18.464C93.0843 18.2507 93.3083 17.9413 93.3083 17.536C93.3083 17.0667 93.0096 16.7147 92.4123 16.48C91.8363 16.2453 90.8763 15.9893 89.5323 15.712C87.8043 15.3493 86.3643 14.9653 85.2123 14.56C84.0603 14.1333 83.0576 13.4507 82.2043 12.512C81.3509 11.552 80.9243 10.2613 80.9243 8.64C80.9243 7.232 81.3189 5.952 82.1083 4.8C82.8976 3.648 84.0709 2.74133 85.6283 2.08C87.2069 1.41867 89.1163 1.088 91.3563 1.088C92.8923 1.088 94.3963 1.25867 95.8683 1.6C97.3616 1.92 98.6736 2.4 99.8043 3.04L97.5323 8.512C95.3349 7.40267 93.2549 6.848 91.2923 6.848C89.3509 6.848 88.3802 7.31733 88.3802 8.256C88.3802 8.704 88.6683 9.04533 89.2443 9.28C89.8203 9.49333 90.7696 9.728 92.0923 9.984C93.7989 10.304 95.2389 10.6773 96.4123 11.104C97.5856 11.5093 98.5989 12.1813 99.4523 13.12C100.327 14.0587 100.764 15.3387 100.764 16.96C100.764 18.368 100.37 19.648 99.5803 20.8C98.7909 21.9307 97.6069 22.8373 96.0283 23.52C94.4709 24.1813 92.5723 24.512 90.3323 24.512ZM112.196 24.32C110.212 24.32 108.43 23.936 106.852 23.168C105.294 22.4 104.068 21.3227 103.172 19.936C102.297 18.5493 101.86 16.9813 101.86 15.232C101.86 13.4827 102.297 11.9253 103.172 10.56C104.068 9.17333 105.294 8.096 106.852 7.328C108.43 6.56 110.212 6.176 112.196 6.176C114.329 6.176 116.153 6.63467 117.668 7.552C119.182 8.46933 120.228 9.73867 120.804 11.36L115.204 14.112C114.521 12.576 113.508 11.808 112.164 11.808C111.31 11.808 110.596 12.1067 110.02 12.704C109.465 13.3013 109.188 14.144 109.188 15.232C109.188 16.3413 109.465 17.1947 110.02 17.792C110.596 18.3893 111.31 18.688 112.164 18.688C113.508 18.688 114.521 17.92 115.204 16.384L120.804 19.136C120.228 20.7573 119.182 22.0267 117.668 22.944C116.153 23.8613 114.329 24.32 112.196 24.32ZM130.315 6.176C133.387 6.176 135.734 6.86933 137.355 8.256C138.976 9.62133 139.787 11.7333 139.787 14.592V24H133.067V21.696C132.235 23.4453 130.582 24.32 128.107 24.32C126.72 24.32 125.536 24.0853 124.555 23.616C123.595 23.1253 122.859 22.4747 122.347 21.664C121.856 20.832 121.611 19.904 121.611 18.88C121.611 17.152 122.272 15.84 123.595 14.944C124.918 14.048 126.923 13.6 129.611 13.6H132.523C132.288 12.2347 131.19 11.552 129.227 11.552C128.438 11.552 127.638 11.68 126.827 11.936C126.016 12.1707 125.323 12.5013 124.747 12.928L122.443 8.16C123.446 7.54133 124.651 7.06133 126.059 6.72C127.488 6.35733 128.907 6.176 130.315 6.176ZM130.283 19.968C130.795 19.968 131.254 19.8293 131.659 19.552C132.064 19.2747 132.363 18.8587 132.555 18.304V17.088H130.763C129.291 17.088 128.555 17.5787 128.555 18.56C128.555 18.9653 128.704 19.3067 129.003 19.584C129.323 19.84 129.75 19.968 130.283 19.968ZM154.593 6.176C156.129 6.176 157.537 6.54933 158.817 7.296C160.118 8.02133 161.142 9.07733 161.889 10.464C162.657 11.8507 163.041 13.4507 163.041 15.264C163.041 17.0773 162.657 18.6773 161.889 20.064C161.142 21.4293 160.118 22.4853 158.817 23.232C157.537 23.9573 156.129 24.32 154.593 24.32C152.651 24.32 151.169 23.8187 150.145 22.816V30.208H142.913V6.496H149.793V7.936C150.838 6.76267 152.438 6.176 154.593 6.176ZM152.865 18.688C153.697 18.688 154.379 18.3893 154.913 17.792C155.446 17.1947 155.713 16.352 155.713 15.264C155.713 14.176 155.446 13.3333 154.913 12.736C154.379 12.1173 153.697 11.808 152.865 11.808C152.033 11.808 151.35 12.1173 150.817 12.736C150.283 13.3333 150.017 14.176 150.017 15.264C150.017 16.352 150.283 17.1947 150.817 17.792C151.35 18.3893 152.033 18.688 152.865 18.688ZM183.943 15.232C183.943 15.3387 183.911 15.904 183.847 16.928H171.687C171.943 17.5893 172.369 18.1013 172.967 18.464C173.564 18.8053 174.311 18.976 175.207 18.976C175.975 18.976 176.615 18.88 177.127 18.688C177.66 18.496 178.236 18.1653 178.855 17.696L182.631 21.504C180.924 23.3813 178.375 24.32 174.983 24.32C172.871 24.32 171.015 23.936 169.415 23.168C167.815 22.3787 166.577 21.2907 165.703 19.904C164.828 18.5173 164.391 16.96 164.391 15.232C164.391 13.4827 164.817 11.9253 165.671 10.56C166.545 9.17333 167.729 8.096 169.223 7.328C170.737 6.56 172.433 6.176 174.311 6.176C176.081 6.176 177.692 6.528 179.143 7.232C180.615 7.936 181.777 8.97067 182.631 10.336C183.505 11.7013 183.943 13.3333 183.943 15.232ZM174.375 11.104C173.628 11.104 173.009 11.3067 172.519 11.712C172.028 12.1173 171.708 12.6933 171.559 13.44H177.191C177.041 12.7147 176.721 12.1493 176.231 11.744C175.74 11.3173 175.121 11.104 174.375 11.104Z" fill="black"/>
</svg>
